<svg width="131.31" height="24" id="Layer_1" data-name="Layer 1" xmlns="http://www.w3.org/2000/svg" viewBox="0 0 196.96 36">
  <defs>
    <style>
      .cls-1 {
        fill: #e87722;
      }
    </style>
  </defs>
  <g>
    <g>
      <path class="cls-1" d="M36,54c0-10.17,6-18,16.76-18,10.32,0,16.75,7.43,16.75,18,0,10.92-6.43,18-16.75,18S36,64.87,36,54Zm28.22,0c0-7-3.64-13.61-11.51-13.61-7.33,0-11.42,6.13-11.42,13.61,0,7.83,4.14,13.61,11.47,13.61S64.22,61.68,64.22,54Z" transform="translate(-36 -36)"/>
      <path class="cls-1" d="M91.85,71.4V57.64c0-6.68-2.44-8.48-5.58-8.48-4.89,0-7.53,4-7.53,10.42V71.4H74.05V46h4.54v4h.1A9.11,9.11,0,0,1,87,45.37c6.39,0,9.53,3.89,9.53,10.82V71.4Z" transform="translate(-36 -36)"/>
      <path class="cls-1" d="M122,70.35A19,19,0,0,1,114,72c-8.63,0-13.21-5-13.21-13.76,0-7.68,4.83-12.87,11.91-12.87,7.38,0,11.22,4.69,11.22,14.36H105.81a8.32,8.32,0,0,0,8.38,8.48A15.13,15.13,0,0,0,122,65.67Zm-3-14.11c0-4.09-2.4-7.08-6.39-7.08-3.74,0-6.28,2.69-6.78,7.08Z" transform="translate(-36 -36)"/>
      <path class="cls-1" d="M138,71.4V36.6h9.22c8.28,0,13,3.44,13,10.42s-5,10.47-12.37,10.47H143V71.4ZM148,53.1c3.64,0,7-1.94,7-6.13,0-3.89-3.79-6-7.88-6h-4V53.1Z" transform="translate(-36 -36)"/>
      <path class="cls-1" d="M178.17,71.4V68.11h-.1A9.47,9.47,0,0,1,170.14,72c-5.88,0-9.28-2.79-9.28-7.93,0-5.38,5.14-8.38,12.17-8.38,2,0,3.59.05,4.64.1,0-4.63-1.85-6.63-6.28-6.63a11.84,11.84,0,0,0-7.38,2.6l-.25-4a16.13,16.13,0,0,1,8.37-2.4c7,0,10.23,3.34,10.23,10.47V67a38.62,38.62,0,0,0,.2,4.39Zm-.5-12.11s-2.1-.1-3-.1c-5.29,0-8.78,1.59-8.78,4.88,0,2.45,2.24,4.14,4.79,4.14,4.39,0,7-2.74,7-6.68Z" transform="translate(-36 -36)"/>
      <path class="cls-1" d="M187.14,66.42A12.68,12.68,0,0,0,193,68.21c2.49,0,4.78-1.1,4.78-3.64,0-1.4-.89-2.64-4.58-4.29-5.24-2.34-6.44-4.54-6.44-7.13,0-5.28,4-7.78,9-7.78a19.49,19.49,0,0,1,5.83,1l-.39,4.09a13.63,13.63,0,0,0-4.94-1.3c-2.54,0-4.49,1.1-4.49,3.09s1.75,3.15,4.94,4.54c4.34,1.9,6.08,3.89,6.08,7.28,0,4.84-3.59,7.93-8.92,7.93a14.37,14.37,0,0,1-6.94-1.4Z" transform="translate(-36 -36)"/>
      <path class="cls-1" d="M206.24,66.42a12.68,12.68,0,0,0,5.84,1.79c2.49,0,4.78-1.1,4.78-3.64,0-1.4-.89-2.64-4.58-4.29-5.24-2.34-6.44-4.54-6.44-7.13,0-5.28,4-7.78,9-7.78a19.49,19.49,0,0,1,5.83,1l-.4,4.09a13.58,13.58,0,0,0-4.93-1.3c-2.55,0-4.49,1.1-4.49,3.09s1.74,3.15,4.94,4.54c4.33,1.9,6.08,3.89,6.08,7.28,0,4.84-3.59,7.93-8.93,7.93A14.35,14.35,0,0,1,206,70.6Z" transform="translate(-36 -36)"/>
    </g>
    <g>
      <path class="cls-1" d="M223.53,42.63V37.84h-1.7v-.7H226v.7h-1.7v4.79Z" transform="translate(-36 -36)"/>
      <path class="cls-1" d="M232.18,42.63V37.88h0l-1.81,4.75h-.77l-1.82-4.75h0v4.75H227V37.14h1.3L230,41.7l1.69-4.56H233v5.49Z" transform="translate(-36 -36)"/>
    </g>
  </g>
</svg>